<?xml version="1.0" encoding="UTF-8"?>
<svg width="863px" height="2424px" viewBox="0 0 863 2424" version="1.1" xmlns="http://www.w3.org/2000/svg" xmlns:xlink="http://www.w3.org/1999/xlink">
    <!-- Generator: Sketch 59.1 (86144) - https://sketch.com -->
    <title>Line Art</title>
    <desc>Created with Sketch.</desc>
    <defs>
        <rect id="path-1" x="0" y="0" width="921" height="2788"></rect>
        <polygon id="path-3" points="0 0 588 0 588 1657 0 1657"></polygon>
    </defs>
    <g id="3.6.0" stroke="none" stroke-width="1" fill="none" fill-rule="evenodd">
        <g id="Homepage-3.5.2-Copy" transform="translate(0.000000, -2856.000000)">
            <g id="Line-Art" transform="translate(0.000000, 2775.000000)">
                <mask id="mask-2" fill="white">
                    <use xlink:href="#path-1"></use>
                </mask>
                <g id="Mask"></g>
                <g mask="url(#mask-2)">
                    <g transform="translate(-220.000000, -320.000000)">
                        <g id="Group-3" opacity="0.05" transform="translate(14.000000, 1011.000000)">
                            <mask id="mask-4" fill="white">
                                <use xlink:href="#path-3"></use>
                            </mask>
                            <g id="Clip-2"></g>
                            <path d="M165.385318,1657 C165.385318,1657 331.002115,1454.35099 493.62857,1284.93906 C638.161798,1134.3816 620.394533,855.522226 414.561643,664.4444 C190.786696,456.710298 26.7949819,86.3097978 0,0 L165.385318,1657 Z" id="Fill-1" fill="#231F20" mask="url(#mask-4)"></path>
                        </g>
                        <g id="Group-45" opacity="0.4">
                            <path d="M172.236195,2580.57677 C172.236195,2580.57677 219.687549,2490.02345 326.478747,2344.96349 C498.173921,2111.74119 79.4416072,1793.6628 0,1537.07717" id="Stroke-1" stroke="#231F20" stroke-width="0.3"></path>
                            <path d="M175.19505,2589.59189 C175.19505,2589.59189 238.963912,2483.39864 353.420965,2335.44234 C447.192952,2214.22782 392.076239,2056.6909 282.946453,1909.3127 C172.023836,1759.5102 42.2415811,1584.56035 4.50833333,1462.70247" id="Stroke-3" stroke="#231F20" stroke-width="0.3"></path>
                            <path d="M176.745683,2603.11456 C176.745683,2603.11456 257.247065,2481.10708 379.879792,2329.92582 C482.01922,2204.00052 433.285724,2026.63982 307.919622,1872.41292 C178.474484,1713.16281 42.7309042,1506.39514 6.7625,1390.58154" id="Stroke-5" stroke="#231F20" stroke-width="0.3"></path>
                            <path d="M177.314317,2614.38345 C177.314317,2614.38345 274.160278,2476.59753 404.208039,2322.14534 C514.179967,2191.54009 471.958727,1994.38645 331.171538,1833.25283 C183.826027,1664.61659 43.0108716,1425.96527 9.01666667,1316.20684" id="Stroke-7" stroke="#231F20" stroke-width="0.3"></path>
                            <path d="M180.142117,2627.90613 C180.142117,2627.90613 293.303373,2474.36146 430.672285,2316.62557 C548.474195,2181.35804 512.632357,1964.44552 356.570634,1796.3529 C191.339203,1618.38428 45.5538764,1347.78387 13.525,1244.08592" id="Stroke-9" stroke="#231F20" stroke-width="0.3"></path>
                            <path d="M183.703867,2636.92124 C183.703867,2636.92124 313.708504,2467.90065 458.967243,2307.10291 C585.146707,2167.42168 555.425904,1931.11729 383.474818,1756.29782 C199.572978,1569.33054 48.2340307,1267.18276 18.0333333,1169.71122" id="Stroke-11" stroke="#231F20" stroke-width="0.3"></path>
                            <path d="M184.262283,2650.44391 C184.262283,2650.44391 330.553647,2465.46285 483.007485,2301.08038 C617.020376,2156.57735 593.481213,1900.176 406.464542,1718.04352 C204.692324,1521.55134 48.5298477,1186.88374 20.2875,1095.33652" id="Stroke-13" stroke="#231F20" stroke-width="0.3"></path>
                            <path d="M186.11984,2663.96659 C186.11984,2663.96659 349.926964,2463.30481 510.776421,2295.55418 C653.730353,2146.47313 636.157229,1870.34833 432.573448,1681.14427 C211.243661,1475.44726 49.0438633,1108.67901 22.5416667,1023.21559" id="Stroke-15" stroke="#231F20" stroke-width="0.3"></path>
                            <path d="M186.663007,2672.9817 C186.663007,2672.9817 366.746354,2456.93862 534.699566,2286.03204 C685.489778,2132.59405 673.988751,1837.13517 455.459911,1641.08951 C216.268367,1426.50681 49.3403678,1028.11205 24.7958333,948.840891" id="Stroke-17" stroke="#231F20" stroke-width="0.3"></path>
                            <path d="M187.803127,2686.50438 C187.803127,2686.50438 384.810956,2454.82046 560.458738,2280.5115 C719.649162,2122.5227 714.130723,1807.3665 479.888586,1604.18805 C221.968006,1380.47054 49.7301805,949.911066 27.05,876.719968" id="Stroke-19" stroke="#231F20" stroke-width="0.3"></path>
                            <path d="M192.88902,2700.02705 C192.88902,2700.02705 406.132614,2452.72282 588.81911,2274.98998 C755.852481,2112.48405 756.299181,1777.6181 507.207881,1567.28417 C231.472765,1334.45531 54.5514958,871.705739 33.8125,804.599045" id="Stroke-21" stroke="#231F20" stroke-width="0.3"></path>
                            <path d="M194.507723,2711.29594 C194.507723,2711.29594 425.422761,2448.38877 616.358437,2267.2158 C792.362006,2100.20368 798.758143,1745.64084 533.161931,1528.1343 C237.757571,1286.21862 54.9934395,791.242525 36.0666667,730.224344" id="Stroke-23" stroke="#231F20" stroke-width="0.3"></path>
                            <path d="M195.096469,2724.81862 C195.096469,2724.81862 442.219203,2446.62858 640.153221,2262.19946 C824.007352,2090.88754 836.306862,1717.02872 555.920922,1492.58095 C242.728522,1241.87546 55.3136381,715.223662 38.3208333,660.3572" id="Stroke-25" stroke="#231F20" stroke-width="0.3"></path>
                            <path d="M196.173843,2736.08751 C196.173843,2736.08751 460.254423,2442.32427 665.777904,2254.42629 C858.047221,2078.63585 876.254207,1685.07747 580.241446,1453.429 C248.313726,1193.67422 55.6899697,634.762629 40.575,585.982498" id="Stroke-27" stroke="#231F20" stroke-width="0.3"></path>
                            <path d="M199.050503,2747.3564 C199.050503,2747.3564 479.303416,2438.03575 691.797559,2246.65108 C891.923703,2066.40109 915.957081,1653.13977 605.212256,1414.27177 C255.539409,1145.48578 58.2795886,554.298462 45.0833333,511.607796" id="Stroke-29" stroke="#231F20" stroke-width="0.3"></path>
                            <path d="M200.537288,2758.6253 C200.537288,2758.6253 498.552075,2434.07117 719.208322,2239.38159 C928.323814,2054.86667 958.314838,1622.31746 631.088682,1376.46545 C261.686482,1098.92834 58.6821742,476.05412 47.3375,439.486874" id="Stroke-31" stroke="#231F20" stroke-width="0.3"></path>
                            <path d="M203.438332,2772.14797 C203.438332,2772.14797 517.603094,2432.06036 745.201468,2233.86014 C962.174112,2044.90858 997.95501,1592.65707 656.031054,1339.56655 C268.911645,1053.02135 61.2836799,397.845017 51.8458333,367.365951" id="Stroke-33" stroke="#231F20" stroke-width="0.3"></path>
                            <path d="M202.25503,2785.67064 C202.25503,2785.67064 533.442405,2429.74101 768.614388,2227.83542 C994.062703,2034.2875 1035.28341,1562.48498 678.141394,1301.32859 C271.742429,1006.18588 59.4019528,317.401268 51.8458333,292.991249" id="Stroke-35" stroke="#231F20" stroke-width="0.3"></path>
                            <path d="M205.521777,2796.93954 C205.521777,2796.93954 553.955643,2425.89187 796.270832,2220.06144 C1030.43596,2022.49187 1077.28484,1530.44988 704.53133,1262.17033 C279.5997,957.89601 62.0191136,236.926802 56.3541667,218.616547" id="Stroke-37" stroke="#231F20" stroke-width="0.3"></path>
                            <path d="M208.809487,2808.20843 C208.809487,2808.20843 574.108271,2421.84996 824.049544,2212.78595 C1066.54193,2010.87568 1119.45843,1499.52025 731.029374,1224.35989 C287.491593,911.209517 64.6452487,158.693864 60.8625,146.495625" id="Stroke-39" stroke="#231F20" stroke-width="0.3"></path>
                            <path d="M209.497314,2819.47733 C209.497314,2819.47733 590.788081,2417.48334 847.764231,2205.01661 C1098.00885,1998.57995 1156.85625,1467.48545 753.676353,1185.21082 C292.589419,862.923946 64.9974001,78.2210046 63.1166667,72.1209228" id="Stroke-41" stroke="#231F20" stroke-width="0.3"></path>
                            <path d="M210.854419,2833 C210.854419,2833 609.877109,2415.36886 875.066101,2199.49537 C1134.21078,1988.54188 1199.26066,1437.70178 779.486606,1148.31292 C298.742001,816.889271 65.3708333,0 65.3708333,0" id="Stroke-43" stroke="#231F20" stroke-width="0.3"></path>
                        </g>
                    </g>
                </g>
            </g>
        </g>
    </g>
</svg>