<?xml version="1.0" standalone="no"?><!DOCTYPE svg PUBLIC "-//W3C//DTD SVG 1.1//EN" "http://www.w3.org/Graphics/SVG/1.1/DTD/svg11.dtd"><svg class="icon" height="512" viewBox="0 0 1024 1024" version="1.1" xmlns="http://www.w3.org/2000/svg"><path d="M4.248898 105.027065C4.248898 105.027065 212.302502 5.036959 512.361902 5.036959 812.4213 5.036959 1018.434261 105.027065 1018.434261 105.027065L993.946889 162.164269C993.946889 162.164269 809.306423 67.557587 512.361902 67.557587 215.417379 67.557587 35.009566 162.012817 35.009566 162.012817L4.248898 105.027065ZM110.277063 249.204221C58.31131 211.059967 51.39169 191.7603 51.39169 191.7603 51.39169 191.7603 128.213969 151.094498 224.271818 129.053085 320.329668 107.011673 409.995559 102.083964 409.995559 102.083964L513.510001 229.793366 617.973499 102.083964C617.973499 102.083964 697.423047 105.709988 798.993711 128.941966 900.564375 152.173943 979.297656 187.742709 979.297656 187.742709 979.297656 187.742709 967.484247 212.202373 922.453314 247.178762 877.422385 282.155151 840.42393 291.475655 840.42393 291.475655 840.42393 291.475655 838.458073 265.082522 826.863539 252.052668 815.269006 239.022814 798.818768 230.184068 776.481435 225.124303 725.182023 213.504161 657.10401 215.776482 657.10401 215.776482L513.570839 1023.243993 370.408786 215.776482C370.408786 215.776482 281.647449 218.65307 253.98776 225.931936 239.730584 229.683824 217.020139 234.180909 198.994605 256.483689 191.594321 265.639973 185.803314 291.475655 185.803314 291.475655 185.803314 291.475655 162.242817 287.348474 110.277063 249.204221Z" /></svg>